
<svg xmlns="http://www.w3.org/2000/svg" viewBox="-24706.104 -22837.506 10.498 6">
  <defs>
    <style>
      .cls-1 {
        fill: #777;
        opacity: 0.69;
      }
    </style>
  </defs>
  <path id="Path_3522" data-name="Path 3522" class="cls-1" d="M8.762,32.049a.266.266,0,0,1,.392.042q2.022,1.934,4.039,3.875,2.023-1.937,4.042-3.878a.264.264,0,0,1,.387-.04,9.158,9.158,0,0,1,.793.79c.081.157-.051.276-.151.378q-2.221,2.127-4.438,4.259a4.622,4.622,0,0,1-.541.49c-.158.052-.279-.06-.384-.159q-2.385-2.3-4.778-4.587c-.1-.1-.239-.224-.152-.384A9.482,9.482,0,0,1,8.762,32.049Z" transform="translate(-24714.047 -22869.484)"/>
</svg>
