<svg xmlns="http://www.w3.org/2000/svg" xmlns:xlink="http://www.w3.org/1999/xlink" width="70" height="70" viewBox="0 0 70 70">
  <defs>
    <clipPath id="clip-audio">
      <rect width="70" height="70"/>
    </clipPath>
  </defs>
  <g id="audio" clip-path="url(#clip-audio)">
    <g id="_3f3b3aff" data-name="#3f3b3aff" transform="translate(-17.612 -55.319)">
      <path id="Path_1" data-name="Path 1" d="M38.282,82.731c5.9-4.259,11.778-8.55,17.685-12.8a3.248,3.248,0,0,1,3.019,1.9,3.356,3.356,0,0,1,.3,1.521q0,17.174,0,34.349a3.326,3.326,0,0,1-1.113,2.637,2.913,2.913,0,0,1-2.28.767q-9-6.3-17.984-12.626a.47.47,0,0,0-.332-.124q-3.375,0-6.752,0a3.137,3.137,0,0,1-3.251-3.173c0-3.136-.006-6.272,0-9.408a3.131,3.131,0,0,1,3.041-3.045c2.553-.01,5.107,0,7.66,0m-.891,1.806a.647.647,0,0,0-.291.6c0,3.458-.006,6.917,0,10.375a.628.628,0,0,0,.785.586.657.657,0,0,0,.481-.689q0-4.815,0-9.63a7.365,7.365,0,0,0-.022-.856A.637.637,0,0,0,37.39,84.537Z" fill="#e3611c"/>
      <path id="Path_2" data-name="Path 2" d="M410.342,81.091a1.293,1.293,0,0,1,1.455.448,33.071,33.071,0,0,1,2.236,34.142c-.266.458-.433,1.028-.916,1.312a1.28,1.28,0,0,1-1.713-1.807,30.534,30.534,0,0,0-.524-30.373c-.373-.651-.809-1.264-1.215-1.893A1.277,1.277,0,0,1,410.342,81.091Z" transform="translate(-341.055 -9.901)" fill="#e3611c"/>
      <path id="Path_3" data-name="Path 3" d="M381.969,124.771a1.274,1.274,0,0,1,1.558.461,24.207,24.207,0,0,1,1.288,25.575,1.273,1.273,0,0,1-2.282-1.124c.221-.445.472-.875.679-1.328a21.678,21.678,0,0,0-1.817-21.731A1.277,1.277,0,0,1,381.969,124.771Z" transform="translate(-315.784 -48.877)" fill="#e3611c"/>
      <path id="Path_4" data-name="Path 4" d="M351.861,156.427a1.262,1.262,0,0,1,1.241.458,17.769,17.769,0,0,1,1,18.885,1.277,1.277,0,1,1-2.179-1.33,15.271,15.271,0,0,0-.865-16.048A1.28,1.28,0,0,1,351.861,156.427Z" transform="translate(-288.67 -77.216)" fill="#e3611c"/>
    </g>
  </g>
</svg>
