<svg xmlns="http://www.w3.org/2000/svg" width="21.905" height="21.796" viewBox="0 0 21.905 21.796"><defs><style>.a{fill:#fff;}</style></defs><g transform="translate(0 -0.119)"><g transform="translate(0 0.119)"><path class="a" d="M22.86,5.857a5.738,5.738,0,0,0-11.476,0c0,4.54,5.738,11.259,5.738,11.259S22.86,10.374,22.86,5.857Zm-8.568-.343a2.83,2.83,0,1,1,2.83,2.83A2.83,2.83,0,0,1,14.292,5.514Z" transform="translate(-6.17 -0.119)"/><circle class="a" cx="1.391" cy="1.391" r="1.391" transform="translate(9.56 4.004)"/><path class="a" d="M14.2,32.87c-.468.676-.906,1.265-1.272,1.737,3.626.218,6,1,6.886,1.583-1.036.683-4.113,1.643-8.857,1.643S3.131,36.873,2.1,36.19c.884-.582,3.258-1.364,6.88-1.582-.366-.473-.806-1.061-1.274-1.737C3.241,33.31,0,34.63,0,36.19c0,1.919,4.9,3.475,10.953,3.475S21.905,38.11,21.905,36.19C21.906,34.629,18.662,33.309,14.2,32.87Z" transform="translate(0 -17.869)"/></g></g></svg>