<svg xmlns="http://www.w3.org/2000/svg" viewBox="-24661 -23318 100.588 128">
  <defs>
    <style>
      .cls-1 {
        fill: #adadad;
      }
    </style>
  </defs>
  <g id="Group_1213" data-name="Group 1213" transform="translate(-25602 -23765)">
    <path id="Path_3484" data-name="Path 3484" class="cls-1" d="M105.14,35.973a4.572,4.572,0,0,1,4.522-3.98q41.14-.017,82.282,0a4.588,4.588,0,0,1,4.571,4.554q.013,54.87.006,109.737a4.611,4.611,0,0,1-2.914,4.237c-2,.657-4.165.174-6.234.32-.026,1.623.043,3.245-.011,4.868a4.616,4.616,0,0,1-4.56,4.28q-41.144-.017-82.288-.011a4.589,4.589,0,0,1-4.568-4.571q0-53.709,0-107.42c.034-1.394-.191-2.877.423-4.185a4.543,4.543,0,0,1,3.851-2.646c1.623-.08,3.248.006,4.874-.02.037-1.72-.086-3.443.046-5.16m4.522.586c.02,1.523.011,3.048,0,4.574q29.711-.009,59.421,0,9.149,9.132,18.287,18.276.017,43.432,0,86.862c1.523.011,3.045-.02,4.568-.006q0-54.844,0-109.686-41.14-.043-82.273-.017M100.521,45.7q.021,54.853,0,109.708,41.135-.013,82.273-.006.013-45.708.006-91.416c-4.474.011-8.948-.009-13.419.011a4.657,4.657,0,0,1-4.368-2.508c-.671-1.246-.491-2.7-.5-4.065.009-3.905-.006-7.814.006-11.722q-32,0-64,0m68.586,1.923c-.029,3.928-.017,7.854-.006,11.782,3.917.011,7.837.023,11.753-.006C176.969,55.445,173.023,51.546,169.107,47.623Z" transform="translate(845.066 415.014)"/>
    <path id="Path_3485" data-name="Path 3485" class="cls-1" d="M161.5,176.073a3.832,3.832,0,0,1,1.037-.123c7.054-.011,14.11.014,21.164-.011.968.023,2.088-.154,2.877.543a2.278,2.278,0,0,1,.151,3.371c-.774.843-2,.68-3.031.677-7.151-.011-14.3.006-21.453-.006a2.291,2.291,0,0,1-.746-4.451Z" transform="translate(799.326 312.19)"/>
    <path id="Path_3486" data-name="Path 3486" class="cls-1" d="M161.511,224.082a6,6,0,0,1,1.6-.134q24.585.021,49.17.006a2.322,2.322,0,0,1,2.537,2.586,2.361,2.361,0,0,1-2.548,2q-24.855-.017-49.707-.009a2.327,2.327,0,0,1-2.508-1.734A2.3,2.3,0,0,1,161.511,224.082Z" transform="translate(799.318 277.9)"/>
    <path id="Path_3487" data-name="Path 3487" class="cls-1" d="M161.484,272.074a7.909,7.909,0,0,1,2.174-.126c16.293.014,32.586-.017,48.876.014a2.283,2.283,0,0,1,2.208,2.823,2.354,2.354,0,0,1-2.5,1.74q-24.859.017-49.716.011A2.385,2.385,0,0,1,160.084,275,2.3,2.3,0,0,1,161.484,272.074Z" transform="translate(799.348 243.615)"/>
    <path id="Path_3488" data-name="Path 3488" class="cls-1" d="M161.5,320.073a4.568,4.568,0,0,1,1.351-.134q24,0,47.993,0c1.126.026,2.48-.229,3.34.691a2.279,2.279,0,0,1-.174,3.36c-.789.706-1.908.52-2.874.534-16.29-.017-32.58.017-48.868-.014a2.284,2.284,0,0,1-.769-4.434Z" transform="translate(799.311 209.339)"/>
    <path id="Path_3489" data-name="Path 3489" class="cls-1" d="M161.5,368.067a13.845,13.845,0,0,1,3.04-.131q23.861.009,47.716.006a2.423,2.423,0,0,1,2.08.849,2.311,2.311,0,0,1-.32,3.183,2.847,2.847,0,0,1-2.048.546q-24.714-.013-49.427,0a2.356,2.356,0,0,1-2.511-1.783A2.314,2.314,0,0,1,161.5,368.067Z" transform="translate(799.325 175.055)"/>
  </g>
</svg>
