<svg xmlns="http://www.w3.org/2000/svg" viewBox="-24769 -22866 20 17.145">
  <defs>
    <style>
      .cls-1 {
        fill: #e3611c;
      }
    </style>
  </defs>
  <g id="Group_1242" data-name="Group 1242" transform="translate(-24809 -23369)">
    <g id="Group_1241" data-name="Group 1241" transform="translate(-743 -384)">
      <path id="Path_3516" data-name="Path 3516" class="cls-1" d="M33,64.015a1.742,1.742,0,0,1,.337-.025q8.729,0,17.459,0a1.256,1.256,0,0,1,1.2,1.246q0,7.323,0,14.646a1.264,1.264,0,0,1-.8,1.166,1.67,1.67,0,0,1-.669.083H33.243a1.258,1.258,0,0,1-1.248-1.248q0-7.322,0-14.646a1.26,1.26,0,0,1,1-1.224m.428,1.979q0,5.787,0,11.574,2.825-3.406,5.65-6.814a1,1,0,0,1,1.441-.064c.811.872,1.617,1.75,2.427,2.623a1.079,1.079,0,0,0,.546.377.728.728,0,0,0,.608-.144c.372-.28.7-.613,1.081-.884a.717.717,0,0,1,.931.117q2.23,2.4,4.458,4.8-.005-5.79-.013-11.58a.572.572,0,0,0-.608-.579q-7.973,0-15.945,0A.582.582,0,0,0,33.423,65.995Z" transform="translate(751.006 823.01)"/>
      <path id="Path_3517" data-name="Path 3517" class="cls-1" d="M321.765,128.028a2.142,2.142,0,1,1-1.645,1.413A2.145,2.145,0,0,1,321.765,128.028Z" transform="translate(475.852 761.863)"/>
    </g>
  </g>
</svg>