 <svg
                        xmlns="http://www.w3.org/2000/svg"
                        width="100%"
                        height="100%"
                        viewBox="0 0 130.5 130.5"
                      >
                        <g transform="translate(-612.75 -301.75)">
                          <circle
                            class="a"
                            cx="65.25"
                            cy="65.25"
                            r="65.25"
                            transform="translate(612.75 301.75)"
                            fill="#c6ccd4"
                          ></circle>
                          <g transform="translate(640.714 325.364)">
                            <path
                              class="b"
                              fill="#fff"
                              d="M98.28,11.99q19.342-.031,38.685-.007c.411-.036.613.4.888.628q11.775,11.765,23.54,23.544.018,29.525.005,59.052-31.56.013-63.119.007c.012-13.158-.008-26.314.008-39.472,1.2,2.84,2.325,5.71,3.516,8.555a1.686,1.686,0,0,1,.16.676c.015,8.849-.012,17.7.012,26.548q27.872.005,55.74,0,0-27.031,0-54.063-10.9,0-21.793,0c.025-7.264,0-14.529.014-21.794q-16.985,0-33.974,0c.012,3.764,0,7.526.005,11.288-1.221-2.974-2.453-5.945-3.638-8.93-.114-2-.01-4.022-.049-6.031M139.919,20.3c0,4.39-.007,8.781.005,13.171,4.38,0,8.761.007,13.141-.005Q146.5,26.887,139.919,20.3Z"
                              transform="translate(-86.503 -11.98)"
                            ></path>
                            <path
                              class="b"
                              fill="#fff"
                              d="M33.138,31.071a4.276,4.276,0,0,1,4.8,2.116q12.033,29.489,24.07,58.979a4.115,4.115,0,0,1,.5,1.632c.029,3,.054,6.006.1,9.007a1.432,1.432,0,0,1-.713,1.338,1.363,1.363,0,0,1-1.692-.282c-2.059-2.193-4.09-4.411-6.153-6.6a2.09,2.09,0,0,1-.408-.6Q41.43,66.755,29.223,36.846a3.936,3.936,0,0,1,.263-3.326A5.407,5.407,0,0,1,33.138,31.071Z"
                              transform="translate(-28.968 -27.734)"
                            ></path>
                            <path
                              class="b"
                              fill="#fff"
                              d="M159.99,72.993q10.272-.015,20.546,0,.01,5.1,0,10.191-10.275,0-20.551,0c0-3.4-.007-6.79,0-10.186m3.392,3.392c.017,1.133-.005,2.267,0,3.4q6.879-.013,13.757,0c.007-1.133-.015-2.264,0-3.4Q170.261,76.389,163.382,76.384Z"
                              transform="translate(-137.731 -62.625)"
                            ></path>
                            <path
                              class="b"
                              fill="#fff"
                              d="M165.59,211.945q20.753.005,41.51-.005c0,1.14,0,2.278.01,3.416q-20.06-.025-40.122-.007C166.511,214.219,166.066,213.075,165.59,211.945Z"
                              transform="translate(-142.385 -177.978)"
                            ></path>
                            <path
                              class="b"
                              fill="#fff"
                              d="M194.18,281.99q18.328-.015,36.652,0c.019,1.133,0,2.264,0,3.4-11.76,0-23.52.014-35.28-.008C195.111,284.24,194.642,283.116,194.18,281.99Z"
                              transform="translate(-166.12 -236.125)"
                            ></path>
                            <path
                              class="b"
                              fill="#fff"
                              d="M222.78,351.962c10.656-.017,21.312.008,31.966-.012q.008,7.646,0,15.294-14.44,0-28.882,0c.007-1.131-.008-2.262-.022-3.394q12.754-.005,25.507,0-.005-4.244,0-8.487-13.594-.013-27.19-.005C223.709,354.221,223.233,353.1,222.78,351.962Z"
                              transform="translate(-189.862 -294.208)"
                            ></path>
                          </g>
                        </g>
                      </svg>
