<svg xmlns="http://www.w3.org/2000/svg" width="16" height="16" viewBox="0 0 16 16"><defs><style>.a{fill:#e3611c;}</style></defs><g transform="translate(-6 -1)"><path class="a" d="M9.222,12.929a13.387,13.387,0,0,0,5.858,5.853l1.956-1.96a.892.892,0,0,1,.9-.218,10.119,10.119,0,0,0,3.173.507A.886.886,0,0,1,22,18v3.111a.886.886,0,0,1-.889.889A15.11,15.11,0,0,1,6,6.889.889.889,0,0,1,6.889,6H10a.886.886,0,0,1,.889.889,10.119,10.119,0,0,0,.507,3.173.892.892,0,0,1-.218.9Z" transform="translate(0 -5)"/></g></svg>