<svg xmlns="http://www.w3.org/2000/svg" xmlns:xlink="http://www.w3.org/1999/xlink" width="70" height="70" viewBox="0 0 70 70">
  <defs>
    <clipPath id="clip-code">
      <rect width="70" height="70"/>
    </clipPath>
  </defs>
  <g id="code" clip-path="url(#clip-code)">
    <g id="_393737ff" data-name="#393737ff" transform="translate(-23.392 -23.392)">
      <path id="Path_6" data-name="Path 6" d="M39.76,39.76c4.329.012,8.657,0,12.986.007,0,.77.011,1.54-.005,2.31a1.087,1.087,0,0,1-.347.024c-3.431,0-6.863,0-10.294,0q0,5.776,0,11.551c-.778,0-1.555,0-2.333,0C39.759,49.022,39.771,44.391,39.76,39.76Z" transform="translate(0 0)" fill="#e3611c"/>
      <path id="Path_7" data-name="Path 7" d="M324.955,39.809q6.488,0,12.977,0c0,4.668.017,9.336-.01,14-.774-.014-1.548,0-2.323-.008q0-5.83,0-11.661-5.322,0-10.645,0C324.948,41.364,324.955,40.587,324.955,39.809Z" transform="translate(-260.045 -0.043)" fill="#e3611c"/>
      <path id="Path_8" data-name="Path 8" d="M85.372,95.59c2.749.006,5.5,0,8.25,0q.013,4.125,0,8.252c-2.748.007-5.494,0-8.242.005-.02-2.753,0-5.507-.009-8.26m2.109,6.143q2.013,0,4.025,0c.024-1.344,0-2.688.01-4.031-1.344,0-2.689,0-4.032,0C87.48,99.046,87.485,100.389,87.481,101.733Z" transform="translate(-41.589 -50.907)" fill="#e3611c"/>
      <path id="Path_9" data-name="Path 9" d="M332.939,95.584c2.75-.005,5.5.005,8.252,0q0,4.128,0,8.255-4.129.005-8.26,0c.018-2.75,0-5.5.009-8.252m2.119,2.109q-.017,2.016,0,4.033,2.012,0,4.024,0c0-1.343,0-2.686,0-4.03C337.74,97.689,336.4,97.7,335.058,97.694Z" transform="translate(-267.319 -50.898)" fill="#e3611c"/>
      <path id="Path_10" data-name="Path 10" d="M199.473,97.655a.494.494,0,0,1,.464-.492c.645-.026,1.292-.026,1.938-.018,0,.75,0,1.5,0,2.249-.805,0-1.61,0-2.415,0C199.463,98.815,199.442,98.234,199.473,97.655Z" transform="translate(-145.614 -52.321)" fill="#e3611c"/>
      <path id="Path_11" data-name="Path 11" d="M206.481,97.54a.411.411,0,0,1,.424-.42c.658-.006,1.316.019,1.974,0,.007,1.545,0,3.089.005,4.634-1.65,0-3.3,0-4.949,0,0,1.551,0,3.1,0,4.653-.844-.01-1.689.008-2.532,0-.01-.762,0-1.524,0-2.285-.772,0-1.544-.01-2.316.005a1.478,1.478,0,0,1-.155-.763,2.294,2.294,0,0,1,.086-1.282c.126-.238.429-.253.667-.272a13.6,13.6,0,0,0,1.768-.045c.01-.524.011-1.048-.011-1.572.005-.2-.031-.436.12-.593a.865.865,0,0,1,.6-.144c1.441.025,2.883.016,4.323.015C206.5,98.825,206.47,98.182,206.481,97.54Z" transform="translate(-145.094 -52.301)" fill="#e3611c"/>
      <path id="Path_12" data-name="Path 12" d="M284.281,177.306a.411.411,0,0,1,.44-.442c.66,0,1.319.007,1.98,0,0,.751,0,1.5,0,2.254-.83.006-1.66,0-2.49.006C284.232,178.52,284.267,177.913,284.281,177.306Z" transform="translate(-222.895 -125.013)" fill="#e3611c"/>
      <path id="Path_13" data-name="Path 13" d="M85.869,203.453c.639-.034,1.28-.023,1.92-.019,0,.752,0,1.5,0,2.256-.8-.016-1.607.005-2.41-.009,0-.585-.027-1.169.013-1.753A.5.5,0,0,1,85.869,203.453Z" transform="translate(-41.591 -149.237)" fill="#e3611c"/>
      <path id="Path_14" data-name="Path 14" d="M115.939,202.958a.963.963,0,0,1,.63-.139c1.411.006,2.822.021,4.233.011.828-.007,1.657.023,2.482-.06.009.786,0,1.57,0,2.356-1.388.009-2.777.028-4.164-.013a1.076,1.076,0,0,0-.7.15.7.7,0,0,0-.146.6,13.777,13.777,0,0,1,.009,1.55q-2.521.005-5.041,0c.039-.6.072-1.2.053-1.806a.471.471,0,0,1,.54-.45c.661.027,1.323.023,1.984.011.009-.561.022-1.121-.007-1.681A.66.66,0,0,1,115.939,202.958Z" transform="translate(-67.001 -148.636)" fill="#e3611c"/>
      <path id="Path_15" data-name="Path 15" d="M177.808,202.871c.817-.033,1.631-.092,2.447-.121,0,1.563,0,3.124,0,4.687h-2.444c.011.769-.006,1.538,0,2.307-2.526-.008-5.052,0-7.577,0,.039-.742.073-1.485.12-2.226q2.487,0,4.975,0c.019-.669-.012-1.34,0-2.01a.387.387,0,0,1,.429-.349c.681,0,1.361.015,2.041,0Q177.808,204.013,177.808,202.871Z" transform="translate(-118.975 -148.618)" fill="#e3611c"/>
      <path id="Path_16" data-name="Path 16" d="M287.442,203.624a2.314,2.314,0,0,1,1.165-.193q4.262-.007,8.523,0c0,.764,0,1.53,0,2.294-.692.005-1.385-.013-2.077.005a.389.389,0,0,0-.4.4c0,.649.013,1.3,0,1.948H297.1c0,.771.007,1.541,0,2.313-1.645.009-3.291-.007-4.937.007-.028-1.532,0-3.065-.012-4.6-.852-.013-1.7,0-2.554,0,0,1.535.009,3.071-.005,4.607-1.66-.011-3.321,0-4.981-.008.007-.514.058-1.027.03-1.541a.877.877,0,0,1,.108-.589.71.71,0,0,1,.6-.158c.6.041,1.207.011,1.811.01,0-1.194-.01-2.388.007-3.582C287.194,204.221,287.182,203.845,287.442,203.624Z" transform="translate(-223.26 -149.237)" fill="#e3611c"/>
      <path id="Path_17" data-name="Path 17" d="M85.856,255.922c.655-.132,1.332-.048,1.993-.152.011,1.557-.007,3.114.008,4.672-.811,0-1.622,0-2.435,0,0-1.217-.009-2.434.006-3.65C85.435,256.464,85.469,256.012,85.856,255.922Z" transform="translate(-41.634 -196.963)" fill="#e3611c"/>
      <path id="Path_18" data-name="Path 18" d="M143.009,282.386c.587-.07,1.179-.059,1.769-.086.013.776,0,1.552,0,2.328-.808,0-1.615,0-2.423,0a12.707,12.707,0,0,1,.044-1.9A.857.857,0,0,1,143.009,282.386Z" transform="translate(-93.537 -221.153)" fill="#e3611c"/>
      <path id="Path_19" data-name="Path 19" d="M230.238,283.234c.111-.278.44-.344.705-.354.568-.021,1.137.054,1.7-.01,0,.778,0,1.555,0,2.332q2.508,0,5.016,0c.011.772,0,1.543,0,2.316.827.011,1.655,0,2.482.008q.005,1.165,0,2.331c-.809.005-1.62,0-2.429,0q0,2.324,0,4.648c-.831,0-1.66,0-2.49,0-.008-.768.006-1.535,0-2.3-1.689,0-3.379,0-5.068,0-.006-.778,0-1.555,0-2.331-.835-.011-1.671.005-2.507-.005.028-.622.016-1.245.032-1.867a.422.422,0,0,1,.438-.42c.692,0,1.385.025,2.077,0-.005-.98.014-1.958,0-2.937a3.762,3.762,0,0,1,.045-1.409m2.462,4.683a18.583,18.583,0,0,0-.034,1.958h2.49c0-.779,0-1.557,0-2.336-.643,0-1.286-.028-1.927.013A.608.608,0,0,0,232.7,287.917Z" transform="translate(-171.322 -221.673)" fill="#e3611c"/>
      <path id="Path_20" data-name="Path 20" d="M341.694,283.24a.374.374,0,0,1,.337-.409c.7-.038,1.41-.016,2.115-.041,0,.772,0,1.545,0,2.318-.829-.015-1.658.006-2.487-.006C341.682,284.481,341.683,283.861,341.694,283.24Z" transform="translate(-275.279 -221.6)" fill="#e3611c"/>
      <path id="Path_21" data-name="Path 21" d="M199.459,310.132a.492.492,0,0,1,.464-.448c.638-.04,1.277-.023,1.916-.018,0,.756,0,1.512,0,2.268-.8-.009-1.6,0-2.4,0C199.446,311.331,199.414,310.73,199.459,310.132Z" transform="translate(-145.595 -246.1)" fill="#e3611c"/>
      <path id="Path_22" data-name="Path 22" d="M369.837,310.282a.553.553,0,0,1,.543-.53q2.19-.03,4.38-.019,0,3.481,0,6.963c-.818,0-1.636,0-2.454,0q0,1.156,0,2.311c-.826,0-1.652,0-2.478,0-.005-1.408-.007-2.818.027-4.225a.66.66,0,0,1,.527-.351c.628-.042,1.259-.005,1.888-.018,0-.806,0-1.612,0-2.417-.841,0-1.682,0-2.523,0C369.763,311.422,369.774,310.85,369.837,310.282Z" transform="translate(-300.892 -246.165)" fill="#e3611c"/>
      <path id="Path_23" data-name="Path 23" d="M343.134,313.41c.779.009,1.56-.005,2.339.005q0,7,0,13.994-6.125,0-12.25,0c0-.779,0-1.559,0-2.338,3.307.011,6.612,0,9.918.005C343.135,321.187,343.144,317.3,343.134,313.41Z" transform="translate(-267.583 -249.52)" fill="#e3611c"/>
      <path id="Path_24" data-name="Path 24" d="M39.8,314.7c.779-.011,1.557.007,2.336-.006-.007,3.851,0,7.7,0,11.553q5.293,0,10.587,0c.011.779,0,1.558,0,2.337-4.308-.009-8.617,0-12.925-.005Q39.8,321.635,39.8,314.7Z" transform="translate(-0.038 -250.687)" fill="#e3611c"/>
      <path id="Path_25" data-name="Path 25" d="M85.36,330.988c.007-2.75,0-5.5,0-8.253,2.75-.005,5.5.005,8.251-.005q0,4.129,0,8.258H85.36m2.113-6.142c0,1.344-.006,2.688,0,4.031,1.343,0,2.685,0,4.028,0,0-1.344,0-2.688,0-4.031C90.16,324.843,88.817,324.846,87.473,324.846Z" transform="translate(-41.579 -258.018)" fill="#e3611c"/>
      <path id="Path_26" data-name="Path 26" d="M200.256,362.509c.6-.025,1.2-.058,1.794-.039,0,.778,0,1.555,0,2.334.837,0,1.674,0,2.511,0-.017.759.055,1.523-.026,2.279-1.643,0-3.285,0-4.928,0,0-1.436-.011-2.874.033-4.308A.772.772,0,0,1,200.256,362.509Z" transform="translate(-145.751 -294.249)" fill="#e3611c"/>
    </g>
  </g>
</svg>
