<svg xmlns="http://www.w3.org/2000/svg" xmlns:xlink="http://www.w3.org/1999/xlink" viewBox="-7421 -4000 94 94">
  <defs>
    <style>
      .cls-1 {
        clip-path: url(#clip-questions);
      }

      .cls-2 {
        fill: #fff;
      }
    </style>
    <clipPath id="clip-questions">
      <rect x="-7421" y="-4000" width="94" height="94"/>
    </clipPath>
  </defs>
  <g id="questions" class="cls-1">
    <g id="question_2_" data-name="question (2)" transform="translate(-7405.454 -3984.454)">
      <path id="Path_2518" data-name="Path 2518" class="cls-2" d="M31,0A31,31,0,1,0,62,31,30.911,30.911,0,0,0,31,0Zm2.818,47.909a1.331,1.331,0,0,1-1.409,1.409H29.591a1.331,1.331,0,0,1-1.409-1.409V45.091a1.331,1.331,0,0,1,1.409-1.409h2.818a1.331,1.331,0,0,1,1.409,1.409Zm3.8-12.541c-1.973,1.691-3.382,2.818-3.8,4.368a1.372,1.372,0,0,1-1.409,1.127H29.591a1.37,1.37,0,0,1-1.409-1.55C28.745,35.227,31.7,32.973,34.1,31c2.536-1.973,3.945-3.241,3.945-5.636a7.045,7.045,0,1,0-14.091,0v.845a1.3,1.3,0,0,1-.986,1.55l-2.677.845a1.409,1.409,0,0,1-1.832-1.127,10.665,10.665,0,0,1-.141-2.114,12.682,12.682,0,1,1,25.364,0c0,5.214-3.382,7.891-6.059,10Z" transform="translate(0 0)"/>
    </g>
  </g>
</svg>