<?xml version="1.0" encoding="UTF-8"?>
<svg width="24px" height="18px" viewBox="0 0 24 18" version="1.1" xmlns="http://www.w3.org/2000/svg" xmlns:xlink="http://www.w3.org/1999/xlink">
    <!-- Generator: Sketch 50 (54983) - http://www.bohemiancoding.com/sketch -->
    <title>Artboard</title>
    <desc>Created with Sketch.</desc>
    <defs></defs>
    <g id="Artboard" stroke="none" stroke-width="1" fill="none" fill-rule="evenodd">
        <g id="question-mark" transform="translate(3.000000, 0.000000)" fill-rule="nonzero">
            <path d="M18,9.00021768 C18,4.02916848 13.9705537,0 9.00014512,0 C4.02948254,-5.1968071e-16 0,4.02916848 0,9.00021768 C0,13.970505 4.02948254,18 9.00014512,18 C13.9705537,18 18,13.970505 18,9.00021768 Z" id="Shape" fill="#B4B4B4"></path>
            <path d="M4.98795181,6.29687632 C4.98795181,5.79190615 5.14961171,5.28022239 5.47300391,4.76193392 C5.79628753,4.24364545 6.26820272,3.81441173 6.88842378,3.47416017 C7.50868103,3.13401749 8.23229639,2.96385542 9.05926987,2.96385542 C9.82786917,2.96385542 10.5065006,3.10614705 11.094947,3.39044 C11.6833934,3.67487811 12.1378651,4.06161667 12.4586878,4.55061941 C12.7793658,5.03976731 12.939759,5.57126521 12.939759,6.14536712 C12.939759,6.59724557 12.8483074,6.99334687 12.665404,7.33345326 C12.4825007,7.67370481 12.2650723,7.96739678 12.0133359,8.21452914 C11.761491,8.46173409 11.3095888,8.8777221 10.6575569,9.46245688 C10.4772954,9.62728437 10.3327533,9.77218885 10.2241838,9.89706146 C10.1154696,10.0220067 10.0345854,10.1362827 9.9816397,10.2398896 C9.92858543,10.343569 9.88743761,10.4472122 9.85837719,10.5508917 C9.82917201,10.6544986 9.78545471,10.8366725 9.72718911,11.0970869 C9.62643666,11.6499957 9.31097004,11.9263775 8.780934,11.9263775 C8.50523998,11.9263775 8.27326327,11.8360526 8.0851486,11.6552577 C7.89692537,11.4745716 7.80286804,11.2061009 7.80286804,10.8499182 C7.80286804,10.4033744 7.87170107,10.0166358 8.00962046,9.68973882 C8.14743128,9.36276927 8.33029842,9.07571831 8.55829425,8.82858594 C8.78614533,8.58138099 9.09368639,8.28772532 9.48070027,7.94747377 C9.81990741,7.64982624 10.0651658,7.42519344 10.2162583,7.27368424 C10.3673508,7.12217505 10.494558,6.95350085 10.5979523,6.76733506 C10.7013104,6.58131443 10.7530256,6.37936265 10.7530256,6.16133456 C10.7530256,5.7360927 10.595238,5.37729714 10.27988,5.08487532 C9.96441335,4.79259865 9.55749506,4.64631516 9.05926987,4.64631516 C8.4760348,4.64631516 8.04664264,4.7938325 7.77105719,5.08886718 C7.49536318,5.38390186 7.26215601,5.81847015 7.07129092,6.39257207 C6.89102945,6.99334687 6.54907188,7.29360725 6.0454906,7.29360725 C5.74851697,7.29360725 5.49804726,7.18869393 5.29404527,6.97864957 C5.0899709,6.76867778 4.98795181,6.54143213 4.98795181,6.29687632 Z M8.86844097,15.0361446 C8.54501259,15.0361446 8.26273203,14.9310861 8.0215631,14.7211506 C7.7802856,14.5112514 7.65973732,14.2175594 7.65973732,13.8400747 C7.65973732,13.5051577 7.77626853,13.2234777 8.00962046,12.994853 C8.24282763,12.7663372 8.52908907,12.6519886 8.86840478,12.6519886 C9.20240059,12.6519886 9.48330594,12.7663372 9.71130178,12.994853 C9.93915286,13.2234777 10.0532232,13.5051577 10.0532232,13.8400747 C10.0532232,14.2122249 9.93394152,14.5046104 9.69537826,14.717195 C9.45681499,14.9297797 9.18119336,15.0361446 8.86844097,15.0361446 Z" id="Shape" fill="#FFFFFF"></path>
        </g>
    </g>
</svg>