<?xml version="1.0" encoding="UTF-8"?>
<svg width="150px" height="150px" viewBox="0 0 150 150" version="1.1" xmlns="http://www.w3.org/2000/svg" xmlns:xlink="http://www.w3.org/1999/xlink">
    <g id="Artboard" stroke="none" stroke-width="1" fill="none" fill-rule="evenodd">
        <g id="reports-icon.e873aa51" transform="translate(28.000000, 28.000000)" fill="#FFFFFF" fill-rule="nonzero">
            <path d="M49.87875,0 L52.2091667,0 C75.1070558,0.759051395 93.4376845,19.2508144 94,42.158193 L94,44.5085848 C93.9725833,45.0178363 93.9138333,45.5231705 93.8511667,46.0285048 C79.2028333,46.0546202 64.5558056,46.0546202 49.9100833,46.0285048 C49.83175,41.3277213 49.9100833,36.6269378 49.87875,31.945741 C49.87875,21.2984664 49.87875,10.6498861 49.87875,0 Z M27.1033333,10.7687115 C31.9008292,8.82861671 37.0160918,7.79397138 42.1903333,7.71711952 C42.2216667,21.8547258 42.1903333,35.9923321 42.1903333,50.1299383 C42.1903333,51.3247208 42.1433333,52.5234206 42.2334167,53.7142857 C56.917,53.7142857 71.6084167,53.7142857 86.2841667,53.7142857 C86.3638933,61.4988784 84.1162031,69.1297491 79.8295,75.6277713 C75.9860075,81.3245499 70.7383744,85.9335222 64.5936667,89.0093349 C58.1748302,92.2081645 51.1159978,93.914244 43.945,94 L41.9514167,94 C38.374492,93.872921 34.8250078,93.3246315 31.3764167,92.3664777 C15.435794,87.847474 3.48456566,74.6067025 0.614916667,58.2857976 C0.289822289,56.2797696 0.0844864418,54.2561549 0,52.2257043 L0,50.0515919 C0.328928492,32.7022293 11.0023368,17.2324634 27.1033333,10.7687115 Z" id="Combined-Shape"></path>
        </g>
    </g>
</svg>