<svg xmlns="http://www.w3.org/2000/svg" xmlns:xlink="http://www.w3.org/1999/xlink" viewBox="-7749 -4000 94 94">
  <defs>
    <style>
      .cls-1 {
        clip-path: url(#clip-Responses);
      }

      .cls-2 {
        fill: #fff;
      }
    </style>
    <clipPath id="clip-Responses">
      <rect x="-7749" y="-4000" width="94" height="94"/>
    </clipPath>
  </defs>
  <g id="Responses" class="cls-1">
    <g id="icon_chat-room" transform="translate(-7988.422 -4075.422)">
      <path id="Union_11" data-name="Union 11" class="cls-2" d="M38.749,50.376H19.376l7.083-7.753H50.376a3.875,3.875,0,0,0,3.875-3.875V15.5h3.875A3.875,3.875,0,0,1,62,19.376V46.5a3.878,3.878,0,0,1-3.875,3.878H50.376V62Zm-27.125-15.5H3.875A3.877,3.877,0,0,1,0,31V3.875A3.877,3.877,0,0,1,3.875,0H42.624A3.875,3.875,0,0,1,46.5,3.875V31a3.875,3.875,0,0,1-3.875,3.875H23.251L11.624,46.5Z" transform="translate(255 91)"/>
    </g>
  </g>
</svg>