<svg xmlns="http://www.w3.org/2000/svg" width="21.406" height="21.406" viewBox="0 0 21.406 21.406"><defs><style>.a{fill:#fff;}</style></defs><path class="a" d="M16.724,0H4.683A4.683,4.683,0,0,0,0,4.683V16.724a4.683,4.683,0,0,0,4.683,4.683H16.724a4.683,4.683,0,0,0,4.683-4.683V4.683A4.683,4.683,0,0,0,16.724,0Zm3.345,16.724a3.345,3.345,0,0,1-3.345,3.345H4.683a3.345,3.345,0,0,1-3.345-3.345V4.683A3.345,3.345,0,0,1,4.683,1.338H16.724a3.345,3.345,0,0,1,3.345,3.345Z"/><path class="a" d="M114.007,112h-1.338a.669.669,0,0,0-.669.669v1.338a.669.669,0,0,0,.669.669h1.338a.669.669,0,0,0,.669-.669v-1.338A.669.669,0,0,0,114.007,112Z" transform="translate(-107.317 -107.317)"/><path class="a" d="M114.007,224h-1.338a.669.669,0,0,0-.669.669v1.338a.669.669,0,0,0,.669.669h1.338a.669.669,0,0,0,.669-.669v-1.338A.669.669,0,0,0,114.007,224Z" transform="translate(-107.317 -214.635)"/><path class="a" d="M114.007,336h-1.338a.669.669,0,0,0-.669.669v1.338a.669.669,0,0,0,.669.669h1.338a.669.669,0,0,0,.669-.669v-1.338A.669.669,0,0,0,114.007,336Z" transform="translate(-107.317 -321.952)"/><rect class="a" width="8" height="2" transform="translate(8.868 4.868)"/><rect class="a" width="8" height="2" transform="translate(8.868 9.868)"/><rect class="a" width="8" height="2" transform="translate(8.868 13.868)"/></svg>