<svg xmlns="http://www.w3.org/2000/svg" xmlns:xlink="http://www.w3.org/1999/xlink" viewBox="-7585 -4000 94 94">
  <defs>
    <style>
      .cls-1 {
        clip-path: url(#clip-settings);
      }

      .cls-2 {
        fill: #fff;
      }
    </style>
    <clipPath id="clip-settings">
      <rect x="-7585" y="-4000" width="94" height="94"/>
    </clipPath>
  </defs>
  <g id="settings" class="cls-1">
    <g id="icon_setting" transform="translate(-7932 -4075)">
      <path id="Path_108" data-name="Path 108" class="cls-2" d="M51.538,20.15,55.8,12.012,50.375,6.587,42.238,10.85A13.881,13.881,0,0,0,37.975,9.3L34.875,0h-7.75l-3.1,8.912a16.194,16.194,0,0,0-3.875,1.55L12.012,6.2,6.2,12.012l4.263,8.137a16.194,16.194,0,0,0-1.55,3.875L0,27.125v7.75l8.912,3.1c.387,1.55,1.163,2.712,1.55,4.263L6.2,50.375,11.625,55.8l8.137-4.263a13.881,13.881,0,0,0,4.263,1.55L27.125,62h7.75l3.1-8.913c1.55-.388,2.712-1.162,4.263-1.55L50.375,55.8,55.8,50.375l-4.263-8.137a13.881,13.881,0,0,0,1.55-4.263L62,34.875v-7.75l-8.913-3.1A16.194,16.194,0,0,0,51.538,20.15ZM31,42.625A11.418,11.418,0,0,1,19.375,31,11.418,11.418,0,0,1,31,19.375,11.418,11.418,0,0,1,42.625,31,11.418,11.418,0,0,1,31,42.625Z" transform="translate(363 91)"/>
    </g>
  </g>
</svg>