<svg xmlns="http://www.w3.org/2000/svg" viewBox="-24769 -23080 11.744 14">
  <defs>
    <style>
      .cls-1 {
        fill: #e3611c;
      }
    </style>
  </defs>
  <path id="Path_3513" data-name="Path 3513" class="cls-1" d="M42.832,1.738c.132-.013.265-.007.4-.008H53.305c.319,0,.637,0,.956,0,.052,1.093.106,2.186.153,3.278-.13,0-.26,0-.39,0a4.823,4.823,0,0,0-.257-1.123,2.084,2.084,0,0,0-.9-.995,2.393,2.393,0,0,0-.805-.246,8.385,8.385,0,0,0-1.149-.039c-.472,0-.944,0-1.416,0q-.008,5.317,0,10.635a6.332,6.332,0,0,0,.083,1.177,1.039,1.039,0,0,0,.219.517,1.348,1.348,0,0,0,.759.374,5.73,5.73,0,0,0,.907.034c.006.127,0,.254,0,.381-1.524,0-3.047,0-4.571,0-.454,0-.909.008-1.363-.006,0-.125,0-.249,0-.374a4.2,4.2,0,0,0,1.077-.075,1.159,1.159,0,0,0,.7-.507,1.6,1.6,0,0,0,.146-.509,13.39,13.39,0,0,0,.055-1.7q0-4.973,0-9.947c-.4,0-.8,0-1.2,0a9.14,9.14,0,0,0-1.66.086,1.823,1.823,0,0,0-1.127.8,3.07,3.07,0,0,0-.465,1.519c-.13,0-.261,0-.391,0C42.721,3.92,42.781,2.829,42.832,1.738Z" transform="translate(-24811.67 -23081.729)"/>
</svg>
