<svg xmlns="http://www.w3.org/2000/svg" xmlns:xlink="http://www.w3.org/1999/xlink" width="70" height="70" viewBox="0 0 70 70">
  <defs>
    <clipPath id="clip-video">
      <rect width="70" height="70"/>
    </clipPath>
  </defs>
  <g id="video" clip-path="url(#clip-video)">
    <g id="_3f3b3aff" data-name="#3f3b3aff" transform="translate(-39.191 -126.17)">
      <path id="Path_5" data-name="Path 5" d="M47.743,148.172a5.22,5.22,0,0,1,4.619-2.908q14-.016,28,0a5.207,5.207,0,0,1,5.158,5.267q0,2.124,0,4.249c4.246-3.081,8.5-6.146,12.745-9.234a2.608,2.608,0,0,1,2.255,1.424,3.763,3.763,0,0,1,.264,1.845q-.01,12.942-.007,25.883a2.564,2.564,0,0,1-2.511,2.442q-6.373-4.48-12.749-8.956c0,1.375.005,2.752,0,4.127a5.2,5.2,0,0,1-1.812,3.868,5.255,5.255,0,0,1-3.46,1.25q-13.877,0-27.754,0a5.2,5.2,0,0,1-5.275-5.25v-21.5A5.4,5.4,0,0,1,47.743,148.172Z" transform="translate(0 0)" fill="#e3611c"/>
    </g>
  </g>
</svg>
